<?xml version="1.0" encoding="UTF-8" standalone="no" ?>
<!DOCTYPE svg PUBLIC "-//W3C//DTD SVG 1.1//EN" "http://www.w3.org/Graphics/SVG/1.1/DTD/svg11.dtd">
<svg xmlns="http://www.w3.org/2000/svg" xmlns:xlink="http://www.w3.org/1999/xlink" version="1.1" width="400" height="400" viewBox="0 0 400 400" xml:space="preserve">
<desc>Created with Fabric.js 4.2.0</desc>
<defs>
</defs>
<g transform="matrix(1 0 0 1 200 200)" id="36ead90a-7eff-4190-ba1c-e121097a74fe"  >
<rect style="stroke: none; stroke-width: 1; stroke-dasharray: none; stroke-linecap: butt; stroke-dashoffset: 0; stroke-linejoin: miter; stroke-miterlimit: 4; fill: rgb(255,255,255); fill-rule: nonzero; opacity: 1;" vector-effect="non-scaling-stroke"  x="-200" y="-200" rx="0" ry="0" width="400" height="400" />
</g>
<g transform="matrix(Infinity NaN NaN Infinity 0 0)" id="d32d7ae5-1486-46e6-94d3-6be9a78f2187"  >
</g>
<g transform="matrix(2.13 0 0 2.13 200 129)" id="11377581-93db-4f15-b61d-a40b59ab5c96"  >
<path style="stroke: rgb(0,0,0); stroke-width: 0; stroke-dasharray: none; stroke-linecap: butt; stroke-dashoffset: 0; stroke-linejoin: miter; stroke-miterlimit: 4; fill: rgb(101,101,101); fill-rule: nonzero; opacity: 1;" vector-effect="non-scaling-stroke"  transform=" translate(-50, -48.46)" d="M 52.974 18.768 L 17.441 54.302 C 14.142999999999999 57.653999999999996 12.466999999999999 61.98 12.466999999999999 66.361 C 12.466999999999999 70.74200000000002 14.142999999999999 75.12100000000001 17.441 78.422 C 20.741 81.776 25.121 83.39699999999999 29.502 83.39699999999999 C 33.829 83.39699999999999 38.21 81.776 41.563 78.422 L 83.58500000000001 36.4 C 86.233 33.75 87.533 30.342999999999996 87.533 26.881999999999998 C 87.533 23.473999999999997 86.179 20.066999999999997 83.58500000000001 17.470999999999997 L 83.58500000000001 17.416999999999998 C 80.989 14.820999999999998 77.58200000000001 13.522999999999998 74.12 13.522999999999998 C 70.71300000000001 13.522999999999998 67.25200000000001 14.820999999999998 64.65700000000001 17.416999999999998 L 32.151 49.919 C 30.204000000000004 51.921 29.177000000000003 54.516999999999996 29.177000000000003 57.11 C 29.177000000000003 59.708 30.204000000000004 62.303 32.151 64.305 C 34.152 66.25 36.749 67.28 39.344 67.28 L 39.344 67.223 C 41.939 67.223 44.589 66.25 46.538000000000004 64.30499999999999 L 73.146 37.69599999999999 L 69.415 33.96399999999999 L 42.807 60.573 C 41.889 61.546 40.588 62.032000000000004 39.345 62.032000000000004 L 39.345 61.979000000000006 C 38.102 61.979000000000006 36.803 61.54500000000001 35.885 60.57300000000001 C 34.911 59.65500000000001 34.477 58.354000000000006 34.477 57.11000000000001 C 34.477 55.86800000000001 34.910999999999994 54.56900000000001 35.885 53.651 L 68.386 21.148000000000003 C 69.955 19.579000000000004 72.064 18.768000000000004 74.119 18.768000000000004 C 76.23 18.768000000000004 78.339 19.580000000000005 79.906 21.148000000000003 C 81.47500000000001 22.716000000000005 82.286 24.825000000000003 82.286 26.881000000000004 C 82.286 28.990000000000002 81.475 31.099000000000004 79.906 32.667 L 37.83 74.745 C 35.559 77.013 32.531 78.149 29.500999999999998 78.149 C 26.473 78.149 23.443999999999996 77.012 21.119 74.745 L 21.173 74.745 C 18.848 72.417 17.712999999999997 69.39 17.712999999999997 66.36 C 17.712999999999997 63.333 18.848 60.303 21.173 58.03 L 56.703 22.445 L 52.974 18.768 z" stroke-linecap="round" />
</g>
<g transform="matrix(1 0 0 1 200 302.5)" style="" id="0c50d7eb-a59f-4581-878b-45f06dcc2f11"  >
		<text xml:space="preserve" font-family="Lato" font-size="40" font-style="normal" font-weight="400" style="stroke: none; stroke-width: 1; stroke-dasharray: none; stroke-linecap: butt; stroke-dashoffset: 0; stroke-linejoin: miter; stroke-miterlimit: 4; fill: rgb(0,0,0); fill-rule: nonzero; opacity: 1; white-space: pre;" ><tspan x="-35.76" y="12.57" >Test</tspan></text>
</g>
</svg>